%TF.GenerationSoftware,KiCad,Pcbnew,9.0.7*%
%TF.CreationDate,2026-03-06T10:40:24+01:00*%
%TF.ProjectId,VolvocineWithCurrentSensor,566f6c76-6f63-4696-9e65-576974684375,rev?*%
%TF.SameCoordinates,Original*%
%TF.FileFunction,Copper,L1,Top*%
%TF.FilePolarity,Positive*%
%FSLAX46Y46*%
G04 Gerber Fmt 4.6, Leading zero omitted, Abs format (unit mm)*
G04 Created by KiCad (PCBNEW 9.0.7) date 2026-03-06 10:40:24*
%MOMM*%
%LPD*%
G01*
G04 APERTURE LIST*
G04 Aperture macros list*
%AMRoundRect*
0 Rectangle with rounded corners*
0 $1 Rounding radius*
0 $2 $3 $4 $5 $6 $7 $8 $9 X,Y pos of 4 corners*
0 Add a 4 corners polygon primitive as box body*
4,1,4,$2,$3,$4,$5,$6,$7,$8,$9,$2,$3,0*
0 Add four circle primitives for the rounded corners*
1,1,$1+$1,$2,$3*
1,1,$1+$1,$4,$5*
1,1,$1+$1,$6,$7*
1,1,$1+$1,$8,$9*
0 Add four rect primitives between the rounded corners*
20,1,$1+$1,$2,$3,$4,$5,0*
20,1,$1+$1,$4,$5,$6,$7,0*
20,1,$1+$1,$6,$7,$8,$9,0*
20,1,$1+$1,$8,$9,$2,$3,0*%
G04 Aperture macros list end*
%TA.AperFunction,ComponentPad*%
%ADD10C,1.700000*%
%TD*%
%TA.AperFunction,ComponentPad*%
%ADD11R,1.700000X1.700000*%
%TD*%
%TA.AperFunction,SMDPad,CuDef*%
%ADD12RoundRect,0.237500X0.250000X0.237500X-0.250000X0.237500X-0.250000X-0.237500X0.250000X-0.237500X0*%
%TD*%
%TA.AperFunction,SMDPad,CuDef*%
%ADD13RoundRect,0.237500X-0.250000X-0.237500X0.250000X-0.237500X0.250000X0.237500X-0.250000X0.237500X0*%
%TD*%
%TA.AperFunction,SMDPad,CuDef*%
%ADD14RoundRect,0.250000X0.625000X-0.400000X0.625000X0.400000X-0.625000X0.400000X-0.625000X-0.400000X0*%
%TD*%
%TA.AperFunction,SMDPad,CuDef*%
%ADD15RoundRect,0.237500X-0.237500X0.250000X-0.237500X-0.250000X0.237500X-0.250000X0.237500X0.250000X0*%
%TD*%
%TA.AperFunction,SMDPad,CuDef*%
%ADD16RoundRect,0.250001X0.849999X-0.462499X0.849999X0.462499X-0.849999X0.462499X-0.849999X-0.462499X0*%
%TD*%
%TA.AperFunction,SMDPad,CuDef*%
%ADD17RoundRect,0.237500X-0.300000X-0.237500X0.300000X-0.237500X0.300000X0.237500X-0.300000X0.237500X0*%
%TD*%
%TA.AperFunction,SMDPad,CuDef*%
%ADD18RoundRect,0.237500X-0.237500X0.300000X-0.237500X-0.300000X0.237500X-0.300000X0.237500X0.300000X0*%
%TD*%
%TA.AperFunction,SMDPad,CuDef*%
%ADD19RoundRect,0.250000X0.650000X-0.412500X0.650000X0.412500X-0.650000X0.412500X-0.650000X-0.412500X0*%
%TD*%
%TA.AperFunction,SMDPad,CuDef*%
%ADD20RoundRect,0.075000X0.650000X0.075000X-0.650000X0.075000X-0.650000X-0.075000X0.650000X-0.075000X0*%
%TD*%
%TA.AperFunction,SMDPad,CuDef*%
%ADD21RoundRect,0.150000X0.512500X0.150000X-0.512500X0.150000X-0.512500X-0.150000X0.512500X-0.150000X0*%
%TD*%
%TA.AperFunction,SMDPad,CuDef*%
%ADD22RoundRect,0.100000X-0.712500X-0.100000X0.712500X-0.100000X0.712500X0.100000X-0.712500X0.100000X0*%
%TD*%
%TA.AperFunction,SMDPad,CuDef*%
%ADD23RoundRect,0.150000X0.150000X-0.587500X0.150000X0.587500X-0.150000X0.587500X-0.150000X-0.587500X0*%
%TD*%
%TA.AperFunction,Conductor*%
%ADD24C,0.200000*%
%TD*%
G04 APERTURE END LIST*
D10*
%TO.P,J5,2,Pin_2*%
%TO.N,GND*%
X60960000Y-78740000D03*
D11*
%TO.P,J5,1,Pin_1*%
%TO.N,Net-(J5-Pin_1)*%
X63500000Y-78740000D03*
%TD*%
D12*
%TO.P,R12,1*%
%TO.N,+3.3V*%
X80565000Y-60960000D03*
%TO.P,R12,2*%
%TO.N,Net-(J2-Pin_3)*%
X78740000Y-60960000D03*
%TD*%
%TO.P,R11,1*%
%TO.N,+3.3V*%
X80565000Y-66040000D03*
%TO.P,R11,2*%
%TO.N,Net-(J2-Pin_4)*%
X78740000Y-66040000D03*
%TD*%
D10*
%TO.P,J2,12,Pin_12*%
%TO.N,unconnected-(J2-Pin_12-Pad12)*%
X71120000Y-76200000D03*
%TO.P,J2,11,Pin_11*%
%TO.N,unconnected-(J2-Pin_11-Pad11)*%
X71120000Y-73660000D03*
%TO.P,J2,10,Pin_10*%
%TO.N,unconnected-(J2-Pin_10-Pad10)*%
X71120000Y-71120000D03*
%TO.P,J2,9,Pin_9*%
%TO.N,unconnected-(J2-Pin_9-Pad9)*%
X71120000Y-68580000D03*
%TO.P,J2,8,Pin_8*%
%TO.N,unconnected-(J2-Pin_8-Pad8)*%
X71120000Y-66040000D03*
%TO.P,J2,7,Pin_7*%
%TO.N,GND*%
X71120000Y-63500000D03*
%TO.P,J2,6,Pin_6*%
%TO.N,unconnected-(J2-Pin_6-Pad6)*%
X71120000Y-60960000D03*
%TO.P,J2,5,Pin_5*%
%TO.N,Net-(J2-Pin_5)*%
X71120000Y-58420000D03*
%TO.P,J2,4,Pin_4*%
%TO.N,Net-(J2-Pin_4)*%
X71120000Y-55880000D03*
%TO.P,J2,3,Pin_3*%
%TO.N,Net-(J2-Pin_3)*%
X71120000Y-53340000D03*
%TO.P,J2,2,Pin_2*%
%TO.N,unconnected-(J2-Pin_2-Pad2)*%
X71120000Y-50800000D03*
D11*
%TO.P,J2,1,Pin_1*%
%TO.N,unconnected-(J2-Pin_1-Pad1)*%
X71120000Y-48260000D03*
%TD*%
D13*
%TO.P,R5,1*%
%TO.N,Net-(J3-Pin_4)*%
X96175000Y-67000000D03*
%TO.P,R5,2*%
%TO.N,GND*%
X98000000Y-67000000D03*
%TD*%
D14*
%TO.P,Rshunt1,2*%
%TO.N,Net-(U1-EN)*%
X58420000Y-55880000D03*
%TO.P,Rshunt1,1*%
%TO.N,Net-(Q2-D)*%
X58420000Y-58980000D03*
%TD*%
D13*
%TO.P,RFB2,2*%
%TO.N,GND*%
X50055000Y-67195000D03*
%TO.P,RFB2,1*%
%TO.N,Net-(U1-FB)*%
X48230000Y-67195000D03*
%TD*%
%TO.P,RFB1,2*%
%TO.N,Net-(U1-FB)*%
X46055000Y-67195000D03*
%TO.P,RFB1,1*%
%TO.N,+5V*%
X44230000Y-67195000D03*
%TD*%
%TO.P,R8,2*%
%TO.N,GND*%
X55055000Y-66195000D03*
%TO.P,R8,1*%
%TO.N,Net-(Q2-G)*%
X53230000Y-66195000D03*
%TD*%
D12*
%TO.P,R9,2*%
%TO.N,Net-(U2-RA0)*%
X54055000Y-76195000D03*
%TO.P,R9,1*%
%TO.N,Net-(J5-Pin_1)*%
X55880000Y-76195000D03*
%TD*%
%TO.P,R2,1*%
%TO.N,+5V*%
X98345000Y-73660000D03*
%TO.P,R2,2*%
%TO.N,Net-(J6-Pin_9)*%
X96520000Y-73660000D03*
%TD*%
D15*
%TO.P,R1,1*%
%TO.N,Net-(J2-Pin_5)*%
X73660000Y-61675000D03*
%TO.P,R1,2*%
%TO.N,GND*%
X73660000Y-63500000D03*
%TD*%
D16*
%TO.P,L1,2*%
%TO.N,Net-(U1-LX)*%
X38442500Y-58845000D03*
%TO.P,L1,1*%
%TO.N,Net-(U1-EN)*%
X38442500Y-61170000D03*
%TD*%
D13*
%TO.P,R3,1*%
%TO.N,Net-(J6-Pin_9)*%
X96175000Y-69500000D03*
%TO.P,R3,2*%
%TO.N,GND*%
X98000000Y-69500000D03*
%TD*%
D17*
%TO.P,Cin1,2*%
%TO.N,GND*%
X39942500Y-63170000D03*
%TO.P,Cin1,1*%
%TO.N,Net-(U1-EN)*%
X38217500Y-63170000D03*
%TD*%
D18*
%TO.P,C4,1*%
%TO.N,+5V*%
X46555000Y-73695000D03*
%TO.P,C4,2*%
%TO.N,GND*%
X46555000Y-75420000D03*
%TD*%
D19*
%TO.P,Cout1,2*%
%TO.N,GND*%
X48555000Y-58070000D03*
%TO.P,Cout1,1*%
%TO.N,+5V*%
X48555000Y-61195000D03*
%TD*%
D20*
%TO.P,U3,10,Vin+*%
%TO.N,Net-(Q2-D)*%
X61220000Y-57380000D03*
%TO.P,U3,9,Vin-*%
%TO.N,Net-(U1-EN)*%
X61220000Y-56880000D03*
%TO.P,U3,8,Vbus*%
X61220000Y-56380000D03*
%TO.P,U3,7,GND*%
%TO.N,GND*%
X61220000Y-55880000D03*
%TO.P,U3,6,VS*%
%TO.N,+3.3V*%
X61220000Y-55380000D03*
%TO.P,U3,5,SCL*%
%TO.N,Net-(J2-Pin_4)*%
X65620000Y-55380000D03*
%TO.P,U3,4,SDA*%
%TO.N,Net-(J2-Pin_3)*%
X65620000Y-55880000D03*
%TO.P,U3,3,~{Alert}*%
%TO.N,unconnected-(U3-~{Alert}-Pad3)*%
X65620000Y-56380000D03*
%TO.P,U3,2,A0*%
%TO.N,GND*%
X65620000Y-56880000D03*
%TO.P,U3,1,A1*%
X65620000Y-57380000D03*
%TD*%
D21*
%TO.P,U2,1,RA0*%
%TO.N,Net-(U2-RA0)*%
X50555000Y-73595000D03*
%TO.P,U2,2,VSS*%
%TO.N,GND*%
X50555000Y-72645000D03*
%TO.P,U2,3,RA1*%
%TO.N,Net-(Q2-G)*%
X50555000Y-71695000D03*
%TO.P,U2,4,RA2*%
%TO.N,unconnected-(U2-RA2-Pad4)*%
X48280000Y-71695000D03*
%TO.P,U2,5,VDD*%
%TO.N,+5V*%
X48280000Y-72645000D03*
%TO.P,U2,6,RA3*%
X48280000Y-73595000D03*
%TD*%
D22*
%TO.P,U1,1,LX*%
%TO.N,Net-(U1-LX)*%
X41830000Y-60695000D03*
%TO.P,U1,2,EN*%
%TO.N,Net-(U1-EN)*%
X41830000Y-61345000D03*
%TO.P,U1,3,VIN*%
X41830000Y-61995000D03*
%TO.P,U1,4,AGND*%
%TO.N,GND*%
X41830000Y-62645000D03*
%TO.P,U1,5,FB*%
%TO.N,Net-(U1-FB)*%
X46055000Y-62645000D03*
%TO.P,U1,6,RSET*%
%TO.N,unconnected-(U1-RSET-Pad6)*%
X46055000Y-61995000D03*
%TO.P,U1,7,OUT*%
%TO.N,+5V*%
X46055000Y-61345000D03*
%TO.P,U1,8,PGND*%
%TO.N,GND*%
X46055000Y-60695000D03*
%TD*%
D23*
%TO.P,Q2,1,G*%
%TO.N,Net-(Q2-G)*%
X56105000Y-71632500D03*
%TO.P,Q2,2,S*%
%TO.N,Net-(J5-Pin_1)*%
X58005000Y-71632500D03*
%TO.P,Q2,3,D*%
%TO.N,Net-(Q2-D)*%
X57055000Y-69757500D03*
%TD*%
D11*
%TO.P,ServoMotor1,1,Pin_1*%
%TO.N,Net-(J6-Pin_11)*%
X78740000Y-55880000D03*
D10*
%TO.P,ServoMotor1,2,Pin_2*%
%TO.N,+5V*%
X81280000Y-55880000D03*
%TO.P,ServoMotor1,3,Pin_3*%
%TO.N,GND*%
X83820000Y-55880000D03*
%TD*%
D12*
%TO.P,R4,2*%
%TO.N,Net-(J3-Pin_1)*%
X94695000Y-63500000D03*
%TO.P,R4,1*%
%TO.N,GND*%
X96520000Y-63500000D03*
%TD*%
D10*
%TO.P,J6,12,Pin_12*%
%TO.N,unconnected-(J6-Pin_12-Pad12)*%
X88900000Y-76200000D03*
%TO.P,J6,11,Pin_11*%
%TO.N,Net-(J6-Pin_11)*%
X88900000Y-73660000D03*
%TO.P,J6,10,Pin_10*%
%TO.N,unconnected-(J6-Pin_10-Pad10)*%
X88900000Y-71120000D03*
%TO.P,J6,9,Pin_9*%
%TO.N,Net-(J6-Pin_9)*%
X88900000Y-68580000D03*
%TO.P,J6,8,Pin_8*%
%TO.N,Net-(J3-Pin_4)*%
X88900000Y-66040000D03*
%TO.P,J6,7,Pin_7*%
%TO.N,unconnected-(J6-Pin_7-Pad7)*%
X88900000Y-63500000D03*
%TO.P,J6,6,Pin_6*%
%TO.N,Net-(J3-Pin_1)*%
X88900000Y-60960000D03*
%TO.P,J6,5,Pin_5*%
%TO.N,unconnected-(J6-Pin_5-Pad5)*%
X88900000Y-58420000D03*
%TO.P,J6,4,Pin_4*%
%TO.N,+3.3V*%
X88900000Y-55880000D03*
%TO.P,J6,3,Pin_3*%
%TO.N,unconnected-(J6-Pin_3-Pad3)*%
X88900000Y-53340000D03*
%TO.P,J6,2,Pin_2*%
%TO.N,GND*%
X88900000Y-50800000D03*
D11*
%TO.P,J6,1,Pin_1*%
%TO.N,+5V*%
X88900000Y-48260000D03*
%TD*%
D10*
%TO.P,J3,4,Pin_4*%
%TO.N,Net-(J3-Pin_4)*%
X93980000Y-78740000D03*
%TO.P,J3,3,Pin_3*%
%TO.N,+3.3V*%
X96520000Y-78740000D03*
%TO.P,J3,2,Pin_2*%
X99060000Y-78740000D03*
D11*
%TO.P,J3,1,Pin_1*%
%TO.N,Net-(J3-Pin_1)*%
X101600000Y-78740000D03*
%TD*%
%TO.P,J4,1,Pin_1*%
%TO.N,+3.3V*%
X78740000Y-78740000D03*
D10*
%TO.P,J4,2,Pin_2*%
%TO.N,Net-(J2-Pin_5)*%
X76200000Y-78740000D03*
%TD*%
D24*
%TO.N,+3.3V*%
X77589000Y-79891000D02*
X78740000Y-78740000D01*
X72271000Y-79891000D02*
X77589000Y-79891000D01*
X63500000Y-71120000D02*
X72271000Y-79891000D01*
X63500000Y-56901176D02*
X63500000Y-71120000D01*
%TO.N,Net-(J5-Pin_1)*%
X58830000Y-74070000D02*
X58005000Y-74070000D01*
X63500000Y-78740000D02*
X58830000Y-74070000D01*
%TO.N,GND*%
X49875000Y-78740000D02*
X47797500Y-76662500D01*
X60960000Y-78740000D02*
X49875000Y-78740000D01*
%TO.N,+3.3V*%
X78740000Y-78740000D02*
X81161000Y-76319000D01*
X81161000Y-76319000D02*
X82431000Y-77589000D01*
X80565000Y-75723000D02*
X81161000Y-76319000D01*
X80565000Y-66040000D02*
X80565000Y-75723000D01*
%TO.N,Net-(J2-Pin_5)*%
X76200000Y-63500000D02*
X73660000Y-60960000D01*
X76200000Y-78740000D02*
X76200000Y-63500000D01*
%TO.N,+3.3V*%
X95369000Y-77589000D02*
X82431000Y-77589000D01*
X96520000Y-78740000D02*
X95369000Y-77589000D01*
%TO.N,Net-(J3-Pin_4)*%
X102751000Y-77277500D02*
X99922000Y-74448500D01*
X99922000Y-74448500D02*
X97308500Y-74448500D01*
X102751000Y-79891000D02*
X102751000Y-77277500D01*
X95131000Y-79891000D02*
X102751000Y-79891000D01*
X93980000Y-78740000D02*
X95131000Y-79891000D01*
%TO.N,Net-(J3-Pin_1)*%
X100449000Y-77589000D02*
X101600000Y-78740000D01*
X97234760Y-77589000D02*
X100449000Y-77589000D01*
X89376760Y-69731000D02*
X97234760Y-77589000D01*
%TO.N,+3.3V*%
X96520000Y-78740000D02*
X99060000Y-78740000D01*
%TO.N,GND*%
X49861001Y-72645000D02*
X49243500Y-73262501D01*
X50555000Y-72645000D02*
X49861001Y-72645000D01*
X49243500Y-75216500D02*
X47797500Y-76662500D01*
X49243500Y-73262501D02*
X49243500Y-75216500D01*
%TO.N,Net-(U1-EN)*%
X61220000Y-56380000D02*
X61220000Y-56880000D01*
%TO.N,Net-(J2-Pin_4)*%
X78740000Y-66040000D02*
X78740000Y-63500000D01*
X78740000Y-63500000D02*
X71120000Y-55880000D01*
%TO.N,Net-(J2-Pin_3)*%
X78740000Y-60960000D02*
X71120000Y-53340000D01*
%TO.N,+3.3V*%
X83820000Y-60960000D02*
X80565000Y-60960000D01*
X88900000Y-55880000D02*
X83820000Y-60960000D01*
X80565000Y-60960000D02*
X80565000Y-66040000D01*
%TO.N,GND*%
X65527000Y-51951000D02*
X62549000Y-54929000D01*
X77113000Y-51951000D02*
X65527000Y-51951000D01*
X79891000Y-54729000D02*
X77113000Y-51951000D01*
X79891000Y-56463900D02*
X79891000Y-54729000D01*
X80458100Y-57031000D02*
X79891000Y-56463900D01*
X82669000Y-57031000D02*
X80458100Y-57031000D01*
X83820000Y-55880000D02*
X82669000Y-57031000D01*
%TO.N,Net-(J2-Pin_3)*%
X66401176Y-53340000D02*
X71120000Y-53340000D01*
X64861176Y-55880000D02*
X64594000Y-55612824D01*
X64594000Y-55612824D02*
X64594000Y-55147176D01*
X65620000Y-55880000D02*
X64861176Y-55880000D01*
X64594000Y-55147176D02*
X66401176Y-53340000D01*
%TO.N,Net-(J2-Pin_4)*%
X65770000Y-55230000D02*
X70470000Y-55230000D01*
X70470000Y-55230000D02*
X71120000Y-55880000D01*
X65620000Y-55380000D02*
X65770000Y-55230000D01*
%TO.N,GND*%
X65620000Y-58000000D02*
X65620000Y-57380000D01*
X71120000Y-63500000D02*
X65620000Y-58000000D01*
%TO.N,+5V*%
X36640500Y-63465734D02*
X40369766Y-67195000D01*
X36640500Y-57981240D02*
X36640500Y-63465734D01*
X47512740Y-47109000D02*
X36640500Y-57981240D01*
X87749000Y-47109000D02*
X47512740Y-47109000D01*
X40369766Y-67195000D02*
X44230000Y-67195000D01*
X88900000Y-48260000D02*
X87749000Y-47109000D01*
%TO.N,GND*%
X39166500Y-63946000D02*
X39942500Y-63170000D01*
X37041500Y-58147340D02*
X37041500Y-63299634D01*
X37041500Y-63299634D02*
X37687866Y-63946000D01*
X59510176Y-54929000D02*
X40259840Y-54929000D01*
X40259840Y-54929000D02*
X37041500Y-58147340D01*
X37687866Y-63946000D02*
X39166500Y-63946000D01*
X61220000Y-55880000D02*
X60461176Y-55880000D01*
X60461176Y-55880000D02*
X59510176Y-54929000D01*
X62549000Y-54929000D02*
X64500000Y-56880000D01*
X60412176Y-54929000D02*
X62549000Y-54929000D01*
X60194000Y-55147176D02*
X60412176Y-54929000D01*
X64500000Y-56880000D02*
X65620000Y-56880000D01*
X60194000Y-55612824D02*
X60194000Y-55147176D01*
X60461176Y-55880000D02*
X60194000Y-55612824D01*
%TO.N,Net-(U1-EN)*%
X58920000Y-56380000D02*
X58420000Y-55880000D01*
X61220000Y-56380000D02*
X58920000Y-56380000D01*
%TO.N,Net-(Q2-D)*%
X60020000Y-57380000D02*
X58420000Y-58980000D01*
X61220000Y-57380000D02*
X60020000Y-57380000D01*
%TO.N,+3.3V*%
X61978824Y-55380000D02*
X63500000Y-56901176D01*
X61220000Y-55380000D02*
X61978824Y-55380000D01*
%TO.N,Net-(U1-EN)*%
X58420000Y-55880000D02*
X48107499Y-55880000D01*
X42642499Y-61345000D02*
X41830000Y-61345000D01*
X48107499Y-55880000D02*
X42642499Y-61345000D01*
%TO.N,Net-(Q2-D)*%
X58420000Y-68392500D02*
X57055000Y-69757500D01*
X58420000Y-58980000D02*
X58420000Y-68392500D01*
%TO.N,GND*%
X65620000Y-57380000D02*
X65620000Y-56880000D01*
X71120000Y-63500000D02*
X73660000Y-63500000D01*
%TO.N,Net-(J2-Pin_5)*%
X73660000Y-60960000D02*
X73660000Y-61675000D01*
X71120000Y-58420000D02*
X73660000Y-60960000D01*
%TO.N,Net-(J6-Pin_11)*%
X84808000Y-57432000D02*
X87511000Y-54729000D01*
X78740000Y-55880000D02*
X80292000Y-57432000D01*
X80292000Y-57432000D02*
X84808000Y-57432000D01*
%TO.N,Net-(J3-Pin_1)*%
X91440000Y-63500000D02*
X88900000Y-60960000D01*
X94695000Y-63500000D02*
X91440000Y-63500000D01*
%TO.N,GND*%
X88900000Y-50800000D02*
X96520000Y-58420000D01*
X96520000Y-58420000D02*
X96520000Y-63500000D01*
X98000000Y-64980000D02*
X96520000Y-63500000D01*
X98000000Y-67000000D02*
X98000000Y-64980000D01*
%TO.N,Net-(J3-Pin_1)*%
X88423240Y-69731000D02*
X87749000Y-69056760D01*
X89376760Y-69731000D02*
X88423240Y-69731000D01*
X87749000Y-69056760D02*
X87749000Y-62111000D01*
X87749000Y-62111000D02*
X88900000Y-60960000D01*
%TO.N,Net-(J3-Pin_4)*%
X96963500Y-67788500D02*
X96175000Y-67000000D01*
X96963500Y-69967134D02*
X96963500Y-67788500D01*
X97308500Y-70312134D02*
X96963500Y-69967134D01*
X97308500Y-74448500D02*
X97308500Y-70312134D01*
%TO.N,+5V*%
X98271500Y-57631500D02*
X88900000Y-48260000D01*
X99060000Y-64755634D02*
X98271500Y-63967134D01*
X98271500Y-63967134D02*
X98271500Y-57631500D01*
X99060000Y-72945000D02*
X99060000Y-64755634D01*
X98345000Y-73660000D02*
X99060000Y-72945000D01*
%TO.N,Net-(J6-Pin_9)*%
X96520000Y-71120000D02*
X96175000Y-70775000D01*
X96520000Y-73660000D02*
X96520000Y-71120000D01*
X96175000Y-70775000D02*
X96175000Y-69500000D01*
%TO.N,Net-(J6-Pin_11)*%
X90051000Y-55403240D02*
X89376760Y-54729000D01*
X89376760Y-57031000D02*
X90051000Y-56356760D01*
X88423240Y-57031000D02*
X89376760Y-57031000D01*
X84596000Y-60858240D02*
X88423240Y-57031000D01*
X84596000Y-69356000D02*
X84596000Y-60858240D01*
X88900000Y-73660000D02*
X84596000Y-69356000D01*
X90051000Y-56356760D02*
X90051000Y-55403240D01*
%TO.N,GND*%
X46555000Y-75420000D02*
X47797500Y-76662500D01*
X83820000Y-55880000D02*
X88900000Y-50800000D01*
%TO.N,+5V*%
X81280000Y-55880000D02*
X88900000Y-48260000D01*
%TO.N,Net-(U2-RA0)*%
X53155000Y-76195000D02*
X50555000Y-73595000D01*
X54055000Y-76195000D02*
X53155000Y-76195000D01*
%TO.N,Net-(J3-Pin_4)*%
X89860000Y-67000000D02*
X96175000Y-67000000D01*
X88900000Y-66040000D02*
X89860000Y-67000000D01*
%TO.N,Net-(J6-Pin_9)*%
X96500000Y-69825000D02*
X96175000Y-69500000D01*
X89820000Y-69500000D02*
X96175000Y-69500000D01*
X88900000Y-68580000D02*
X89820000Y-69500000D01*
%TO.N,GND*%
X53617500Y-63632500D02*
X53617500Y-63132500D01*
X50055000Y-67195000D02*
X53617500Y-63632500D01*
X53617500Y-63132500D02*
X48555000Y-58070000D01*
%TO.N,+5V*%
X46555000Y-73695000D02*
X48180000Y-73695000D01*
X48180000Y-73695000D02*
X48280000Y-73595000D01*
X48280000Y-72645000D02*
X48280000Y-73595000D01*
X47245000Y-72645000D02*
X48280000Y-72645000D01*
X44230000Y-69630000D02*
X47245000Y-72645000D01*
X44230000Y-67195000D02*
X44230000Y-69630000D01*
X45245000Y-61345000D02*
X46055000Y-61345000D01*
X44230000Y-62360000D02*
X45245000Y-61345000D01*
X44230000Y-67195000D02*
X44230000Y-62360000D01*
%TO.N,Net-(U1-FB)*%
X46055000Y-62645000D02*
X46055000Y-67195000D01*
X46055000Y-67195000D02*
X48230000Y-67195000D01*
%TO.N,GND*%
X49892501Y-72645000D02*
X50555000Y-72645000D01*
X49591500Y-72343999D02*
X49892501Y-72645000D01*
X49591500Y-67658500D02*
X49591500Y-72343999D01*
X50055000Y-67195000D02*
X49591500Y-67658500D01*
%TO.N,Net-(Q2-G)*%
X53492500Y-69020000D02*
X53230000Y-69020000D01*
X56105000Y-71632500D02*
X53492500Y-69020000D01*
X53230000Y-69020000D02*
X50555000Y-71695000D01*
X53230000Y-66195000D02*
X53230000Y-69020000D01*
%TO.N,GND*%
X55055000Y-64570000D02*
X53617500Y-63132500D01*
X55055000Y-66195000D02*
X55055000Y-64570000D01*
%TO.N,+5V*%
X48405000Y-61345000D02*
X48555000Y-61195000D01*
X46055000Y-61345000D02*
X48405000Y-61345000D01*
%TO.N,Net-(U1-EN)*%
X38217500Y-61395000D02*
X38442500Y-61170000D01*
X38217500Y-63170000D02*
X38217500Y-61395000D01*
X41830000Y-61995000D02*
X41830000Y-61345000D01*
X38442500Y-61170000D02*
X38617500Y-61345000D01*
X38617500Y-61345000D02*
X41830000Y-61345000D01*
%TO.N,Net-(U1-LX)*%
X39980000Y-58845000D02*
X41830000Y-60695000D01*
X38442500Y-58845000D02*
X39980000Y-58845000D01*
%TO.N,GND*%
X48555000Y-58070000D02*
X48555000Y-58195000D01*
X48555000Y-58195000D02*
X46055000Y-60695000D01*
X43292501Y-62645000D02*
X41830000Y-62645000D01*
X45242501Y-60695000D02*
X43292501Y-62645000D01*
X46055000Y-60695000D02*
X45242501Y-60695000D01*
X40835000Y-62645000D02*
X41830000Y-62645000D01*
X39942500Y-63170000D02*
X40310000Y-63170000D01*
X40310000Y-63170000D02*
X40835000Y-62645000D01*
X98000000Y-67000000D02*
X98000000Y-69500000D01*
%TO.N,Net-(J5-Pin_1)*%
X58005000Y-74070000D02*
X55880000Y-76195000D01*
X58005000Y-71632500D02*
X58005000Y-74070000D01*
X55880000Y-76200000D02*
X55880000Y-76195000D01*
%TO.N,Net-(J6-Pin_11)*%
X89376760Y-54729000D02*
X87511000Y-54729000D01*
%TD*%
M02*
