%TF.GenerationSoftware,KiCad,Pcbnew,9.0.7*%
%TF.CreationDate,2026-03-06T10:40:24+01:00*%
%TF.ProjectId,VolvocineWithCurrentSensor,566f6c76-6f63-4696-9e65-576974684375,rev?*%
%TF.SameCoordinates,Original*%
%TF.FileFunction,Paste,Top*%
%TF.FilePolarity,Positive*%
%FSLAX46Y46*%
G04 Gerber Fmt 4.6, Leading zero omitted, Abs format (unit mm)*
G04 Created by KiCad (PCBNEW 9.0.7) date 2026-03-06 10:40:24*
%MOMM*%
%LPD*%
G01*
G04 APERTURE LIST*
G04 Aperture macros list*
%AMRoundRect*
0 Rectangle with rounded corners*
0 $1 Rounding radius*
0 $2 $3 $4 $5 $6 $7 $8 $9 X,Y pos of 4 corners*
0 Add a 4 corners polygon primitive as box body*
4,1,4,$2,$3,$4,$5,$6,$7,$8,$9,$2,$3,0*
0 Add four circle primitives for the rounded corners*
1,1,$1+$1,$2,$3*
1,1,$1+$1,$4,$5*
1,1,$1+$1,$6,$7*
1,1,$1+$1,$8,$9*
0 Add four rect primitives between the rounded corners*
20,1,$1+$1,$2,$3,$4,$5,0*
20,1,$1+$1,$4,$5,$6,$7,0*
20,1,$1+$1,$6,$7,$8,$9,0*
20,1,$1+$1,$8,$9,$2,$3,0*%
G04 Aperture macros list end*
%ADD10RoundRect,0.237500X0.250000X0.237500X-0.250000X0.237500X-0.250000X-0.237500X0.250000X-0.237500X0*%
%ADD11RoundRect,0.237500X-0.250000X-0.237500X0.250000X-0.237500X0.250000X0.237500X-0.250000X0.237500X0*%
%ADD12RoundRect,0.250000X0.625000X-0.400000X0.625000X0.400000X-0.625000X0.400000X-0.625000X-0.400000X0*%
%ADD13RoundRect,0.237500X-0.237500X0.250000X-0.237500X-0.250000X0.237500X-0.250000X0.237500X0.250000X0*%
%ADD14RoundRect,0.250001X0.849999X-0.462499X0.849999X0.462499X-0.849999X0.462499X-0.849999X-0.462499X0*%
%ADD15RoundRect,0.237500X-0.300000X-0.237500X0.300000X-0.237500X0.300000X0.237500X-0.300000X0.237500X0*%
%ADD16RoundRect,0.237500X-0.237500X0.300000X-0.237500X-0.300000X0.237500X-0.300000X0.237500X0.300000X0*%
%ADD17RoundRect,0.250000X0.650000X-0.412500X0.650000X0.412500X-0.650000X0.412500X-0.650000X-0.412500X0*%
%ADD18RoundRect,0.075000X0.650000X0.075000X-0.650000X0.075000X-0.650000X-0.075000X0.650000X-0.075000X0*%
%ADD19RoundRect,0.150000X0.512500X0.150000X-0.512500X0.150000X-0.512500X-0.150000X0.512500X-0.150000X0*%
%ADD20RoundRect,0.100000X-0.712500X-0.100000X0.712500X-0.100000X0.712500X0.100000X-0.712500X0.100000X0*%
%ADD21RoundRect,0.150000X0.150000X-0.587500X0.150000X0.587500X-0.150000X0.587500X-0.150000X-0.587500X0*%
G04 APERTURE END LIST*
D10*
%TO.C,R12*%
X80565000Y-60960000D03*
X78740000Y-60960000D03*
%TD*%
%TO.C,R11*%
X80565000Y-66040000D03*
X78740000Y-66040000D03*
%TD*%
D11*
%TO.C,R5*%
X96175000Y-67000000D03*
X98000000Y-67000000D03*
%TD*%
D12*
%TO.C,Rshunt1*%
X58420000Y-55880000D03*
X58420000Y-58980000D03*
%TD*%
D11*
%TO.C,RFB2*%
X50055000Y-67195000D03*
X48230000Y-67195000D03*
%TD*%
%TO.C,RFB1*%
X46055000Y-67195000D03*
X44230000Y-67195000D03*
%TD*%
%TO.C,R8*%
X55055000Y-66195000D03*
X53230000Y-66195000D03*
%TD*%
D10*
%TO.C,R9*%
X54055000Y-76195000D03*
X55880000Y-76195000D03*
%TD*%
%TO.C,R2*%
X98345000Y-73660000D03*
X96520000Y-73660000D03*
%TD*%
D13*
%TO.C,R1*%
X73660000Y-61675000D03*
X73660000Y-63500000D03*
%TD*%
D14*
%TO.C,L1*%
X38442500Y-58845000D03*
X38442500Y-61170000D03*
%TD*%
D11*
%TO.C,R3*%
X96175000Y-69500000D03*
X98000000Y-69500000D03*
%TD*%
D15*
%TO.C,Cin1*%
X39942500Y-63170000D03*
X38217500Y-63170000D03*
%TD*%
D16*
%TO.C,C4*%
X46555000Y-73695000D03*
X46555000Y-75420000D03*
%TD*%
D17*
%TO.C,Cout1*%
X48555000Y-58070000D03*
X48555000Y-61195000D03*
%TD*%
D18*
%TO.C,U3*%
X61220000Y-57380000D03*
X61220000Y-56880000D03*
X61220000Y-56380000D03*
X61220000Y-55880000D03*
X61220000Y-55380000D03*
X65620000Y-55380000D03*
X65620000Y-55880000D03*
X65620000Y-56380000D03*
X65620000Y-56880000D03*
X65620000Y-57380000D03*
%TD*%
D19*
%TO.C,U2*%
X50555000Y-73595000D03*
X50555000Y-72645000D03*
X50555000Y-71695000D03*
X48280000Y-71695000D03*
X48280000Y-72645000D03*
X48280000Y-73595000D03*
%TD*%
D20*
%TO.C,U1*%
X41830000Y-60695000D03*
X41830000Y-61345000D03*
X41830000Y-61995000D03*
X41830000Y-62645000D03*
X46055000Y-62645000D03*
X46055000Y-61995000D03*
X46055000Y-61345000D03*
X46055000Y-60695000D03*
%TD*%
D21*
%TO.C,Q2*%
X56105000Y-71632500D03*
X58005000Y-71632500D03*
X57055000Y-69757500D03*
%TD*%
D10*
%TO.C,R4*%
X94695000Y-63500000D03*
X96520000Y-63500000D03*
%TD*%
M02*
