%TF.GenerationSoftware,KiCad,Pcbnew,9.0.7*%
%TF.CreationDate,2026-03-06T10:40:24+01:00*%
%TF.ProjectId,VolvocineWithCurrentSensor,566f6c76-6f63-4696-9e65-576974684375,rev?*%
%TF.SameCoordinates,Original*%
%TF.FileFunction,Legend,Top*%
%TF.FilePolarity,Positive*%
%FSLAX46Y46*%
G04 Gerber Fmt 4.6, Leading zero omitted, Abs format (unit mm)*
G04 Created by KiCad (PCBNEW 9.0.7) date 2026-03-06 10:40:24*
%MOMM*%
%LPD*%
G01*
G04 APERTURE LIST*
%ADD10C,0.150000*%
%ADD11C,0.120000*%
G04 APERTURE END LIST*
D10*
X65224819Y-83458333D02*
X65939104Y-83458333D01*
X65939104Y-83458333D02*
X66081961Y-83505952D01*
X66081961Y-83505952D02*
X66177200Y-83601190D01*
X66177200Y-83601190D02*
X66224819Y-83744047D01*
X66224819Y-83744047D02*
X66224819Y-83839285D01*
X65224819Y-82505952D02*
X65224819Y-82982142D01*
X65224819Y-82982142D02*
X65701009Y-83029761D01*
X65701009Y-83029761D02*
X65653390Y-82982142D01*
X65653390Y-82982142D02*
X65605771Y-82886904D01*
X65605771Y-82886904D02*
X65605771Y-82648809D01*
X65605771Y-82648809D02*
X65653390Y-82553571D01*
X65653390Y-82553571D02*
X65701009Y-82505952D01*
X65701009Y-82505952D02*
X65796247Y-82458333D01*
X65796247Y-82458333D02*
X66034342Y-82458333D01*
X66034342Y-82458333D02*
X66129580Y-82505952D01*
X66129580Y-82505952D02*
X66177200Y-82553571D01*
X66177200Y-82553571D02*
X66224819Y-82648809D01*
X66224819Y-82648809D02*
X66224819Y-82886904D01*
X66224819Y-82886904D02*
X66177200Y-82982142D01*
X66177200Y-82982142D02*
X66129580Y-83029761D01*
X79009642Y-62844819D02*
X78676309Y-62368628D01*
X78438214Y-62844819D02*
X78438214Y-61844819D01*
X78438214Y-61844819D02*
X78819166Y-61844819D01*
X78819166Y-61844819D02*
X78914404Y-61892438D01*
X78914404Y-61892438D02*
X78962023Y-61940057D01*
X78962023Y-61940057D02*
X79009642Y-62035295D01*
X79009642Y-62035295D02*
X79009642Y-62178152D01*
X79009642Y-62178152D02*
X78962023Y-62273390D01*
X78962023Y-62273390D02*
X78914404Y-62321009D01*
X78914404Y-62321009D02*
X78819166Y-62368628D01*
X78819166Y-62368628D02*
X78438214Y-62368628D01*
X79962023Y-62844819D02*
X79390595Y-62844819D01*
X79676309Y-62844819D02*
X79676309Y-61844819D01*
X79676309Y-61844819D02*
X79581071Y-61987676D01*
X79581071Y-61987676D02*
X79485833Y-62082914D01*
X79485833Y-62082914D02*
X79390595Y-62130533D01*
X80342976Y-61940057D02*
X80390595Y-61892438D01*
X80390595Y-61892438D02*
X80485833Y-61844819D01*
X80485833Y-61844819D02*
X80723928Y-61844819D01*
X80723928Y-61844819D02*
X80819166Y-61892438D01*
X80819166Y-61892438D02*
X80866785Y-61940057D01*
X80866785Y-61940057D02*
X80914404Y-62035295D01*
X80914404Y-62035295D02*
X80914404Y-62130533D01*
X80914404Y-62130533D02*
X80866785Y-62273390D01*
X80866785Y-62273390D02*
X80295357Y-62844819D01*
X80295357Y-62844819D02*
X80914404Y-62844819D01*
X79009642Y-67924819D02*
X78676309Y-67448628D01*
X78438214Y-67924819D02*
X78438214Y-66924819D01*
X78438214Y-66924819D02*
X78819166Y-66924819D01*
X78819166Y-66924819D02*
X78914404Y-66972438D01*
X78914404Y-66972438D02*
X78962023Y-67020057D01*
X78962023Y-67020057D02*
X79009642Y-67115295D01*
X79009642Y-67115295D02*
X79009642Y-67258152D01*
X79009642Y-67258152D02*
X78962023Y-67353390D01*
X78962023Y-67353390D02*
X78914404Y-67401009D01*
X78914404Y-67401009D02*
X78819166Y-67448628D01*
X78819166Y-67448628D02*
X78438214Y-67448628D01*
X79962023Y-67924819D02*
X79390595Y-67924819D01*
X79676309Y-67924819D02*
X79676309Y-66924819D01*
X79676309Y-66924819D02*
X79581071Y-67067676D01*
X79581071Y-67067676D02*
X79485833Y-67162914D01*
X79485833Y-67162914D02*
X79390595Y-67210533D01*
X80914404Y-67924819D02*
X80342976Y-67924819D01*
X80628690Y-67924819D02*
X80628690Y-66924819D01*
X80628690Y-66924819D02*
X80533452Y-67067676D01*
X80533452Y-67067676D02*
X80438214Y-67162914D01*
X80438214Y-67162914D02*
X80342976Y-67210533D01*
X70786666Y-44944819D02*
X70786666Y-45659104D01*
X70786666Y-45659104D02*
X70739047Y-45801961D01*
X70739047Y-45801961D02*
X70643809Y-45897200D01*
X70643809Y-45897200D02*
X70500952Y-45944819D01*
X70500952Y-45944819D02*
X70405714Y-45944819D01*
X71215238Y-45040057D02*
X71262857Y-44992438D01*
X71262857Y-44992438D02*
X71358095Y-44944819D01*
X71358095Y-44944819D02*
X71596190Y-44944819D01*
X71596190Y-44944819D02*
X71691428Y-44992438D01*
X71691428Y-44992438D02*
X71739047Y-45040057D01*
X71739047Y-45040057D02*
X71786666Y-45135295D01*
X71786666Y-45135295D02*
X71786666Y-45230533D01*
X71786666Y-45230533D02*
X71739047Y-45373390D01*
X71739047Y-45373390D02*
X71167619Y-45944819D01*
X71167619Y-45944819D02*
X71786666Y-45944819D01*
X93813333Y-66024819D02*
X93480000Y-65548628D01*
X93241905Y-66024819D02*
X93241905Y-65024819D01*
X93241905Y-65024819D02*
X93622857Y-65024819D01*
X93622857Y-65024819D02*
X93718095Y-65072438D01*
X93718095Y-65072438D02*
X93765714Y-65120057D01*
X93765714Y-65120057D02*
X93813333Y-65215295D01*
X93813333Y-65215295D02*
X93813333Y-65358152D01*
X93813333Y-65358152D02*
X93765714Y-65453390D01*
X93765714Y-65453390D02*
X93718095Y-65501009D01*
X93718095Y-65501009D02*
X93622857Y-65548628D01*
X93622857Y-65548628D02*
X93241905Y-65548628D01*
X94718095Y-65024819D02*
X94241905Y-65024819D01*
X94241905Y-65024819D02*
X94194286Y-65501009D01*
X94194286Y-65501009D02*
X94241905Y-65453390D01*
X94241905Y-65453390D02*
X94337143Y-65405771D01*
X94337143Y-65405771D02*
X94575238Y-65405771D01*
X94575238Y-65405771D02*
X94670476Y-65453390D01*
X94670476Y-65453390D02*
X94718095Y-65501009D01*
X94718095Y-65501009D02*
X94765714Y-65596247D01*
X94765714Y-65596247D02*
X94765714Y-65834342D01*
X94765714Y-65834342D02*
X94718095Y-65929580D01*
X94718095Y-65929580D02*
X94670476Y-65977200D01*
X94670476Y-65977200D02*
X94575238Y-66024819D01*
X94575238Y-66024819D02*
X94337143Y-66024819D01*
X94337143Y-66024819D02*
X94241905Y-65977200D01*
X94241905Y-65977200D02*
X94194286Y-65929580D01*
X57044819Y-59644286D02*
X56568628Y-59977619D01*
X57044819Y-60215714D02*
X56044819Y-60215714D01*
X56044819Y-60215714D02*
X56044819Y-59834762D01*
X56044819Y-59834762D02*
X56092438Y-59739524D01*
X56092438Y-59739524D02*
X56140057Y-59691905D01*
X56140057Y-59691905D02*
X56235295Y-59644286D01*
X56235295Y-59644286D02*
X56378152Y-59644286D01*
X56378152Y-59644286D02*
X56473390Y-59691905D01*
X56473390Y-59691905D02*
X56521009Y-59739524D01*
X56521009Y-59739524D02*
X56568628Y-59834762D01*
X56568628Y-59834762D02*
X56568628Y-60215714D01*
X56997200Y-59263333D02*
X57044819Y-59168095D01*
X57044819Y-59168095D02*
X57044819Y-58977619D01*
X57044819Y-58977619D02*
X56997200Y-58882381D01*
X56997200Y-58882381D02*
X56901961Y-58834762D01*
X56901961Y-58834762D02*
X56854342Y-58834762D01*
X56854342Y-58834762D02*
X56759104Y-58882381D01*
X56759104Y-58882381D02*
X56711485Y-58977619D01*
X56711485Y-58977619D02*
X56711485Y-59120476D01*
X56711485Y-59120476D02*
X56663866Y-59215714D01*
X56663866Y-59215714D02*
X56568628Y-59263333D01*
X56568628Y-59263333D02*
X56521009Y-59263333D01*
X56521009Y-59263333D02*
X56425771Y-59215714D01*
X56425771Y-59215714D02*
X56378152Y-59120476D01*
X56378152Y-59120476D02*
X56378152Y-58977619D01*
X56378152Y-58977619D02*
X56425771Y-58882381D01*
X57044819Y-58406190D02*
X56044819Y-58406190D01*
X57044819Y-57977619D02*
X56521009Y-57977619D01*
X56521009Y-57977619D02*
X56425771Y-58025238D01*
X56425771Y-58025238D02*
X56378152Y-58120476D01*
X56378152Y-58120476D02*
X56378152Y-58263333D01*
X56378152Y-58263333D02*
X56425771Y-58358571D01*
X56425771Y-58358571D02*
X56473390Y-58406190D01*
X56378152Y-57072857D02*
X57044819Y-57072857D01*
X56378152Y-57501428D02*
X56901961Y-57501428D01*
X56901961Y-57501428D02*
X56997200Y-57453809D01*
X56997200Y-57453809D02*
X57044819Y-57358571D01*
X57044819Y-57358571D02*
X57044819Y-57215714D01*
X57044819Y-57215714D02*
X56997200Y-57120476D01*
X56997200Y-57120476D02*
X56949580Y-57072857D01*
X56378152Y-56596666D02*
X57044819Y-56596666D01*
X56473390Y-56596666D02*
X56425771Y-56549047D01*
X56425771Y-56549047D02*
X56378152Y-56453809D01*
X56378152Y-56453809D02*
X56378152Y-56310952D01*
X56378152Y-56310952D02*
X56425771Y-56215714D01*
X56425771Y-56215714D02*
X56521009Y-56168095D01*
X56521009Y-56168095D02*
X57044819Y-56168095D01*
X56378152Y-55834761D02*
X56378152Y-55453809D01*
X56044819Y-55691904D02*
X56901961Y-55691904D01*
X56901961Y-55691904D02*
X56997200Y-55644285D01*
X56997200Y-55644285D02*
X57044819Y-55549047D01*
X57044819Y-55549047D02*
X57044819Y-55453809D01*
X57044819Y-54596666D02*
X57044819Y-55168094D01*
X57044819Y-54882380D02*
X56044819Y-54882380D01*
X56044819Y-54882380D02*
X56187676Y-54977618D01*
X56187676Y-54977618D02*
X56282914Y-55072856D01*
X56282914Y-55072856D02*
X56330533Y-55168094D01*
X48047261Y-66219819D02*
X47713928Y-65743628D01*
X47475833Y-66219819D02*
X47475833Y-65219819D01*
X47475833Y-65219819D02*
X47856785Y-65219819D01*
X47856785Y-65219819D02*
X47952023Y-65267438D01*
X47952023Y-65267438D02*
X47999642Y-65315057D01*
X47999642Y-65315057D02*
X48047261Y-65410295D01*
X48047261Y-65410295D02*
X48047261Y-65553152D01*
X48047261Y-65553152D02*
X47999642Y-65648390D01*
X47999642Y-65648390D02*
X47952023Y-65696009D01*
X47952023Y-65696009D02*
X47856785Y-65743628D01*
X47856785Y-65743628D02*
X47475833Y-65743628D01*
X48809166Y-65696009D02*
X48475833Y-65696009D01*
X48475833Y-66219819D02*
X48475833Y-65219819D01*
X48475833Y-65219819D02*
X48952023Y-65219819D01*
X49666309Y-65696009D02*
X49809166Y-65743628D01*
X49809166Y-65743628D02*
X49856785Y-65791247D01*
X49856785Y-65791247D02*
X49904404Y-65886485D01*
X49904404Y-65886485D02*
X49904404Y-66029342D01*
X49904404Y-66029342D02*
X49856785Y-66124580D01*
X49856785Y-66124580D02*
X49809166Y-66172200D01*
X49809166Y-66172200D02*
X49713928Y-66219819D01*
X49713928Y-66219819D02*
X49332976Y-66219819D01*
X49332976Y-66219819D02*
X49332976Y-65219819D01*
X49332976Y-65219819D02*
X49666309Y-65219819D01*
X49666309Y-65219819D02*
X49761547Y-65267438D01*
X49761547Y-65267438D02*
X49809166Y-65315057D01*
X49809166Y-65315057D02*
X49856785Y-65410295D01*
X49856785Y-65410295D02*
X49856785Y-65505533D01*
X49856785Y-65505533D02*
X49809166Y-65600771D01*
X49809166Y-65600771D02*
X49761547Y-65648390D01*
X49761547Y-65648390D02*
X49666309Y-65696009D01*
X49666309Y-65696009D02*
X49332976Y-65696009D01*
X50285357Y-65315057D02*
X50332976Y-65267438D01*
X50332976Y-65267438D02*
X50428214Y-65219819D01*
X50428214Y-65219819D02*
X50666309Y-65219819D01*
X50666309Y-65219819D02*
X50761547Y-65267438D01*
X50761547Y-65267438D02*
X50809166Y-65315057D01*
X50809166Y-65315057D02*
X50856785Y-65410295D01*
X50856785Y-65410295D02*
X50856785Y-65505533D01*
X50856785Y-65505533D02*
X50809166Y-65648390D01*
X50809166Y-65648390D02*
X50237738Y-66219819D01*
X50237738Y-66219819D02*
X50856785Y-66219819D01*
X44047261Y-66219819D02*
X43713928Y-65743628D01*
X43475833Y-66219819D02*
X43475833Y-65219819D01*
X43475833Y-65219819D02*
X43856785Y-65219819D01*
X43856785Y-65219819D02*
X43952023Y-65267438D01*
X43952023Y-65267438D02*
X43999642Y-65315057D01*
X43999642Y-65315057D02*
X44047261Y-65410295D01*
X44047261Y-65410295D02*
X44047261Y-65553152D01*
X44047261Y-65553152D02*
X43999642Y-65648390D01*
X43999642Y-65648390D02*
X43952023Y-65696009D01*
X43952023Y-65696009D02*
X43856785Y-65743628D01*
X43856785Y-65743628D02*
X43475833Y-65743628D01*
X44809166Y-65696009D02*
X44475833Y-65696009D01*
X44475833Y-66219819D02*
X44475833Y-65219819D01*
X44475833Y-65219819D02*
X44952023Y-65219819D01*
X45666309Y-65696009D02*
X45809166Y-65743628D01*
X45809166Y-65743628D02*
X45856785Y-65791247D01*
X45856785Y-65791247D02*
X45904404Y-65886485D01*
X45904404Y-65886485D02*
X45904404Y-66029342D01*
X45904404Y-66029342D02*
X45856785Y-66124580D01*
X45856785Y-66124580D02*
X45809166Y-66172200D01*
X45809166Y-66172200D02*
X45713928Y-66219819D01*
X45713928Y-66219819D02*
X45332976Y-66219819D01*
X45332976Y-66219819D02*
X45332976Y-65219819D01*
X45332976Y-65219819D02*
X45666309Y-65219819D01*
X45666309Y-65219819D02*
X45761547Y-65267438D01*
X45761547Y-65267438D02*
X45809166Y-65315057D01*
X45809166Y-65315057D02*
X45856785Y-65410295D01*
X45856785Y-65410295D02*
X45856785Y-65505533D01*
X45856785Y-65505533D02*
X45809166Y-65600771D01*
X45809166Y-65600771D02*
X45761547Y-65648390D01*
X45761547Y-65648390D02*
X45666309Y-65696009D01*
X45666309Y-65696009D02*
X45332976Y-65696009D01*
X46856785Y-66219819D02*
X46285357Y-66219819D01*
X46571071Y-66219819D02*
X46571071Y-65219819D01*
X46571071Y-65219819D02*
X46475833Y-65362676D01*
X46475833Y-65362676D02*
X46380595Y-65457914D01*
X46380595Y-65457914D02*
X46285357Y-65505533D01*
X53975833Y-65219819D02*
X53642500Y-64743628D01*
X53404405Y-65219819D02*
X53404405Y-64219819D01*
X53404405Y-64219819D02*
X53785357Y-64219819D01*
X53785357Y-64219819D02*
X53880595Y-64267438D01*
X53880595Y-64267438D02*
X53928214Y-64315057D01*
X53928214Y-64315057D02*
X53975833Y-64410295D01*
X53975833Y-64410295D02*
X53975833Y-64553152D01*
X53975833Y-64553152D02*
X53928214Y-64648390D01*
X53928214Y-64648390D02*
X53880595Y-64696009D01*
X53880595Y-64696009D02*
X53785357Y-64743628D01*
X53785357Y-64743628D02*
X53404405Y-64743628D01*
X54547262Y-64648390D02*
X54452024Y-64600771D01*
X54452024Y-64600771D02*
X54404405Y-64553152D01*
X54404405Y-64553152D02*
X54356786Y-64457914D01*
X54356786Y-64457914D02*
X54356786Y-64410295D01*
X54356786Y-64410295D02*
X54404405Y-64315057D01*
X54404405Y-64315057D02*
X54452024Y-64267438D01*
X54452024Y-64267438D02*
X54547262Y-64219819D01*
X54547262Y-64219819D02*
X54737738Y-64219819D01*
X54737738Y-64219819D02*
X54832976Y-64267438D01*
X54832976Y-64267438D02*
X54880595Y-64315057D01*
X54880595Y-64315057D02*
X54928214Y-64410295D01*
X54928214Y-64410295D02*
X54928214Y-64457914D01*
X54928214Y-64457914D02*
X54880595Y-64553152D01*
X54880595Y-64553152D02*
X54832976Y-64600771D01*
X54832976Y-64600771D02*
X54737738Y-64648390D01*
X54737738Y-64648390D02*
X54547262Y-64648390D01*
X54547262Y-64648390D02*
X54452024Y-64696009D01*
X54452024Y-64696009D02*
X54404405Y-64743628D01*
X54404405Y-64743628D02*
X54356786Y-64838866D01*
X54356786Y-64838866D02*
X54356786Y-65029342D01*
X54356786Y-65029342D02*
X54404405Y-65124580D01*
X54404405Y-65124580D02*
X54452024Y-65172200D01*
X54452024Y-65172200D02*
X54547262Y-65219819D01*
X54547262Y-65219819D02*
X54737738Y-65219819D01*
X54737738Y-65219819D02*
X54832976Y-65172200D01*
X54832976Y-65172200D02*
X54880595Y-65124580D01*
X54880595Y-65124580D02*
X54928214Y-65029342D01*
X54928214Y-65029342D02*
X54928214Y-64838866D01*
X54928214Y-64838866D02*
X54880595Y-64743628D01*
X54880595Y-64743628D02*
X54832976Y-64696009D01*
X54832976Y-64696009D02*
X54737738Y-64648390D01*
X54800833Y-78079819D02*
X54467500Y-77603628D01*
X54229405Y-78079819D02*
X54229405Y-77079819D01*
X54229405Y-77079819D02*
X54610357Y-77079819D01*
X54610357Y-77079819D02*
X54705595Y-77127438D01*
X54705595Y-77127438D02*
X54753214Y-77175057D01*
X54753214Y-77175057D02*
X54800833Y-77270295D01*
X54800833Y-77270295D02*
X54800833Y-77413152D01*
X54800833Y-77413152D02*
X54753214Y-77508390D01*
X54753214Y-77508390D02*
X54705595Y-77556009D01*
X54705595Y-77556009D02*
X54610357Y-77603628D01*
X54610357Y-77603628D02*
X54229405Y-77603628D01*
X55277024Y-78079819D02*
X55467500Y-78079819D01*
X55467500Y-78079819D02*
X55562738Y-78032200D01*
X55562738Y-78032200D02*
X55610357Y-77984580D01*
X55610357Y-77984580D02*
X55705595Y-77841723D01*
X55705595Y-77841723D02*
X55753214Y-77651247D01*
X55753214Y-77651247D02*
X55753214Y-77270295D01*
X55753214Y-77270295D02*
X55705595Y-77175057D01*
X55705595Y-77175057D02*
X55657976Y-77127438D01*
X55657976Y-77127438D02*
X55562738Y-77079819D01*
X55562738Y-77079819D02*
X55372262Y-77079819D01*
X55372262Y-77079819D02*
X55277024Y-77127438D01*
X55277024Y-77127438D02*
X55229405Y-77175057D01*
X55229405Y-77175057D02*
X55181786Y-77270295D01*
X55181786Y-77270295D02*
X55181786Y-77508390D01*
X55181786Y-77508390D02*
X55229405Y-77603628D01*
X55229405Y-77603628D02*
X55277024Y-77651247D01*
X55277024Y-77651247D02*
X55372262Y-77698866D01*
X55372262Y-77698866D02*
X55562738Y-77698866D01*
X55562738Y-77698866D02*
X55657976Y-77651247D01*
X55657976Y-77651247D02*
X55705595Y-77603628D01*
X55705595Y-77603628D02*
X55753214Y-77508390D01*
X97265833Y-75544819D02*
X96932500Y-75068628D01*
X96694405Y-75544819D02*
X96694405Y-74544819D01*
X96694405Y-74544819D02*
X97075357Y-74544819D01*
X97075357Y-74544819D02*
X97170595Y-74592438D01*
X97170595Y-74592438D02*
X97218214Y-74640057D01*
X97218214Y-74640057D02*
X97265833Y-74735295D01*
X97265833Y-74735295D02*
X97265833Y-74878152D01*
X97265833Y-74878152D02*
X97218214Y-74973390D01*
X97218214Y-74973390D02*
X97170595Y-75021009D01*
X97170595Y-75021009D02*
X97075357Y-75068628D01*
X97075357Y-75068628D02*
X96694405Y-75068628D01*
X97646786Y-74640057D02*
X97694405Y-74592438D01*
X97694405Y-74592438D02*
X97789643Y-74544819D01*
X97789643Y-74544819D02*
X98027738Y-74544819D01*
X98027738Y-74544819D02*
X98122976Y-74592438D01*
X98122976Y-74592438D02*
X98170595Y-74640057D01*
X98170595Y-74640057D02*
X98218214Y-74735295D01*
X98218214Y-74735295D02*
X98218214Y-74830533D01*
X98218214Y-74830533D02*
X98170595Y-74973390D01*
X98170595Y-74973390D02*
X97599167Y-75544819D01*
X97599167Y-75544819D02*
X98218214Y-75544819D01*
X75544819Y-62754166D02*
X75068628Y-63087499D01*
X75544819Y-63325594D02*
X74544819Y-63325594D01*
X74544819Y-63325594D02*
X74544819Y-62944642D01*
X74544819Y-62944642D02*
X74592438Y-62849404D01*
X74592438Y-62849404D02*
X74640057Y-62801785D01*
X74640057Y-62801785D02*
X74735295Y-62754166D01*
X74735295Y-62754166D02*
X74878152Y-62754166D01*
X74878152Y-62754166D02*
X74973390Y-62801785D01*
X74973390Y-62801785D02*
X75021009Y-62849404D01*
X75021009Y-62849404D02*
X75068628Y-62944642D01*
X75068628Y-62944642D02*
X75068628Y-63325594D01*
X75544819Y-61801785D02*
X75544819Y-62373213D01*
X75544819Y-62087499D02*
X74544819Y-62087499D01*
X74544819Y-62087499D02*
X74687676Y-62182737D01*
X74687676Y-62182737D02*
X74782914Y-62277975D01*
X74782914Y-62277975D02*
X74830533Y-62373213D01*
X36847319Y-60174166D02*
X36847319Y-60650356D01*
X36847319Y-60650356D02*
X35847319Y-60650356D01*
X36847319Y-59317023D02*
X36847319Y-59888451D01*
X36847319Y-59602737D02*
X35847319Y-59602737D01*
X35847319Y-59602737D02*
X35990176Y-59697975D01*
X35990176Y-59697975D02*
X36085414Y-59793213D01*
X36085414Y-59793213D02*
X36133033Y-59888451D01*
X93813333Y-69034819D02*
X93480000Y-68558628D01*
X93241905Y-69034819D02*
X93241905Y-68034819D01*
X93241905Y-68034819D02*
X93622857Y-68034819D01*
X93622857Y-68034819D02*
X93718095Y-68082438D01*
X93718095Y-68082438D02*
X93765714Y-68130057D01*
X93765714Y-68130057D02*
X93813333Y-68225295D01*
X93813333Y-68225295D02*
X93813333Y-68368152D01*
X93813333Y-68368152D02*
X93765714Y-68463390D01*
X93765714Y-68463390D02*
X93718095Y-68511009D01*
X93718095Y-68511009D02*
X93622857Y-68558628D01*
X93622857Y-68558628D02*
X93241905Y-68558628D01*
X94146667Y-68034819D02*
X94765714Y-68034819D01*
X94765714Y-68034819D02*
X94432381Y-68415771D01*
X94432381Y-68415771D02*
X94575238Y-68415771D01*
X94575238Y-68415771D02*
X94670476Y-68463390D01*
X94670476Y-68463390D02*
X94718095Y-68511009D01*
X94718095Y-68511009D02*
X94765714Y-68606247D01*
X94765714Y-68606247D02*
X94765714Y-68844342D01*
X94765714Y-68844342D02*
X94718095Y-68939580D01*
X94718095Y-68939580D02*
X94670476Y-68987200D01*
X94670476Y-68987200D02*
X94575238Y-69034819D01*
X94575238Y-69034819D02*
X94289524Y-69034819D01*
X94289524Y-69034819D02*
X94194286Y-68987200D01*
X94194286Y-68987200D02*
X94146667Y-68939580D01*
X43539580Y-74724166D02*
X43587200Y-74771785D01*
X43587200Y-74771785D02*
X43634819Y-74914642D01*
X43634819Y-74914642D02*
X43634819Y-75009880D01*
X43634819Y-75009880D02*
X43587200Y-75152737D01*
X43587200Y-75152737D02*
X43491961Y-75247975D01*
X43491961Y-75247975D02*
X43396723Y-75295594D01*
X43396723Y-75295594D02*
X43206247Y-75343213D01*
X43206247Y-75343213D02*
X43063390Y-75343213D01*
X43063390Y-75343213D02*
X42872914Y-75295594D01*
X42872914Y-75295594D02*
X42777676Y-75247975D01*
X42777676Y-75247975D02*
X42682438Y-75152737D01*
X42682438Y-75152737D02*
X42634819Y-75009880D01*
X42634819Y-75009880D02*
X42634819Y-74914642D01*
X42634819Y-74914642D02*
X42682438Y-74771785D01*
X42682438Y-74771785D02*
X42730057Y-74724166D01*
X42968152Y-73867023D02*
X43634819Y-73867023D01*
X42587200Y-74105118D02*
X43301485Y-74343213D01*
X43301485Y-74343213D02*
X43301485Y-73724166D01*
X62658095Y-58284819D02*
X62658095Y-59094342D01*
X62658095Y-59094342D02*
X62705714Y-59189580D01*
X62705714Y-59189580D02*
X62753333Y-59237200D01*
X62753333Y-59237200D02*
X62848571Y-59284819D01*
X62848571Y-59284819D02*
X63039047Y-59284819D01*
X63039047Y-59284819D02*
X63134285Y-59237200D01*
X63134285Y-59237200D02*
X63181904Y-59189580D01*
X63181904Y-59189580D02*
X63229523Y-59094342D01*
X63229523Y-59094342D02*
X63229523Y-58284819D01*
X63610476Y-58284819D02*
X64229523Y-58284819D01*
X64229523Y-58284819D02*
X63896190Y-58665771D01*
X63896190Y-58665771D02*
X64039047Y-58665771D01*
X64039047Y-58665771D02*
X64134285Y-58713390D01*
X64134285Y-58713390D02*
X64181904Y-58761009D01*
X64181904Y-58761009D02*
X64229523Y-58856247D01*
X64229523Y-58856247D02*
X64229523Y-59094342D01*
X64229523Y-59094342D02*
X64181904Y-59189580D01*
X64181904Y-59189580D02*
X64134285Y-59237200D01*
X64134285Y-59237200D02*
X64039047Y-59284819D01*
X64039047Y-59284819D02*
X63753333Y-59284819D01*
X63753333Y-59284819D02*
X63658095Y-59237200D01*
X63658095Y-59237200D02*
X63610476Y-59189580D01*
X48655595Y-74499819D02*
X48655595Y-75309342D01*
X48655595Y-75309342D02*
X48703214Y-75404580D01*
X48703214Y-75404580D02*
X48750833Y-75452200D01*
X48750833Y-75452200D02*
X48846071Y-75499819D01*
X48846071Y-75499819D02*
X49036547Y-75499819D01*
X49036547Y-75499819D02*
X49131785Y-75452200D01*
X49131785Y-75452200D02*
X49179404Y-75404580D01*
X49179404Y-75404580D02*
X49227023Y-75309342D01*
X49227023Y-75309342D02*
X49227023Y-74499819D01*
X49655595Y-74595057D02*
X49703214Y-74547438D01*
X49703214Y-74547438D02*
X49798452Y-74499819D01*
X49798452Y-74499819D02*
X50036547Y-74499819D01*
X50036547Y-74499819D02*
X50131785Y-74547438D01*
X50131785Y-74547438D02*
X50179404Y-74595057D01*
X50179404Y-74595057D02*
X50227023Y-74690295D01*
X50227023Y-74690295D02*
X50227023Y-74785533D01*
X50227023Y-74785533D02*
X50179404Y-74928390D01*
X50179404Y-74928390D02*
X49607976Y-75499819D01*
X49607976Y-75499819D02*
X50227023Y-75499819D01*
X43180595Y-58674819D02*
X43180595Y-59484342D01*
X43180595Y-59484342D02*
X43228214Y-59579580D01*
X43228214Y-59579580D02*
X43275833Y-59627200D01*
X43275833Y-59627200D02*
X43371071Y-59674819D01*
X43371071Y-59674819D02*
X43561547Y-59674819D01*
X43561547Y-59674819D02*
X43656785Y-59627200D01*
X43656785Y-59627200D02*
X43704404Y-59579580D01*
X43704404Y-59579580D02*
X43752023Y-59484342D01*
X43752023Y-59484342D02*
X43752023Y-58674819D01*
X44752023Y-59674819D02*
X44180595Y-59674819D01*
X44466309Y-59674819D02*
X44466309Y-58674819D01*
X44466309Y-58674819D02*
X44371071Y-58817676D01*
X44371071Y-58817676D02*
X44275833Y-58912914D01*
X44275833Y-58912914D02*
X44180595Y-58960533D01*
X55205057Y-70790238D02*
X55157438Y-70885476D01*
X55157438Y-70885476D02*
X55062200Y-70980714D01*
X55062200Y-70980714D02*
X54919342Y-71123571D01*
X54919342Y-71123571D02*
X54871723Y-71218809D01*
X54871723Y-71218809D02*
X54871723Y-71314047D01*
X55109819Y-71266428D02*
X55062200Y-71361666D01*
X55062200Y-71361666D02*
X54966961Y-71456904D01*
X54966961Y-71456904D02*
X54776485Y-71504523D01*
X54776485Y-71504523D02*
X54443152Y-71504523D01*
X54443152Y-71504523D02*
X54252676Y-71456904D01*
X54252676Y-71456904D02*
X54157438Y-71361666D01*
X54157438Y-71361666D02*
X54109819Y-71266428D01*
X54109819Y-71266428D02*
X54109819Y-71075952D01*
X54109819Y-71075952D02*
X54157438Y-70980714D01*
X54157438Y-70980714D02*
X54252676Y-70885476D01*
X54252676Y-70885476D02*
X54443152Y-70837857D01*
X54443152Y-70837857D02*
X54776485Y-70837857D01*
X54776485Y-70837857D02*
X54966961Y-70885476D01*
X54966961Y-70885476D02*
X55062200Y-70980714D01*
X55062200Y-70980714D02*
X55109819Y-71075952D01*
X55109819Y-71075952D02*
X55109819Y-71266428D01*
X54205057Y-70456904D02*
X54157438Y-70409285D01*
X54157438Y-70409285D02*
X54109819Y-70314047D01*
X54109819Y-70314047D02*
X54109819Y-70075952D01*
X54109819Y-70075952D02*
X54157438Y-69980714D01*
X54157438Y-69980714D02*
X54205057Y-69933095D01*
X54205057Y-69933095D02*
X54300295Y-69885476D01*
X54300295Y-69885476D02*
X54395533Y-69885476D01*
X54395533Y-69885476D02*
X54538390Y-69933095D01*
X54538390Y-69933095D02*
X55109819Y-70504523D01*
X55109819Y-70504523D02*
X55109819Y-69885476D01*
X76877200Y-55899762D02*
X76924819Y-55756905D01*
X76924819Y-55756905D02*
X76924819Y-55518810D01*
X76924819Y-55518810D02*
X76877200Y-55423572D01*
X76877200Y-55423572D02*
X76829580Y-55375953D01*
X76829580Y-55375953D02*
X76734342Y-55328334D01*
X76734342Y-55328334D02*
X76639104Y-55328334D01*
X76639104Y-55328334D02*
X76543866Y-55375953D01*
X76543866Y-55375953D02*
X76496247Y-55423572D01*
X76496247Y-55423572D02*
X76448628Y-55518810D01*
X76448628Y-55518810D02*
X76401009Y-55709286D01*
X76401009Y-55709286D02*
X76353390Y-55804524D01*
X76353390Y-55804524D02*
X76305771Y-55852143D01*
X76305771Y-55852143D02*
X76210533Y-55899762D01*
X76210533Y-55899762D02*
X76115295Y-55899762D01*
X76115295Y-55899762D02*
X76020057Y-55852143D01*
X76020057Y-55852143D02*
X75972438Y-55804524D01*
X75972438Y-55804524D02*
X75924819Y-55709286D01*
X75924819Y-55709286D02*
X75924819Y-55471191D01*
X75924819Y-55471191D02*
X75972438Y-55328334D01*
X76877200Y-54518810D02*
X76924819Y-54614048D01*
X76924819Y-54614048D02*
X76924819Y-54804524D01*
X76924819Y-54804524D02*
X76877200Y-54899762D01*
X76877200Y-54899762D02*
X76781961Y-54947381D01*
X76781961Y-54947381D02*
X76401009Y-54947381D01*
X76401009Y-54947381D02*
X76305771Y-54899762D01*
X76305771Y-54899762D02*
X76258152Y-54804524D01*
X76258152Y-54804524D02*
X76258152Y-54614048D01*
X76258152Y-54614048D02*
X76305771Y-54518810D01*
X76305771Y-54518810D02*
X76401009Y-54471191D01*
X76401009Y-54471191D02*
X76496247Y-54471191D01*
X76496247Y-54471191D02*
X76591485Y-54947381D01*
X76924819Y-54042619D02*
X76258152Y-54042619D01*
X76448628Y-54042619D02*
X76353390Y-53995000D01*
X76353390Y-53995000D02*
X76305771Y-53947381D01*
X76305771Y-53947381D02*
X76258152Y-53852143D01*
X76258152Y-53852143D02*
X76258152Y-53756905D01*
X76258152Y-53518809D02*
X76924819Y-53280714D01*
X76924819Y-53280714D02*
X76258152Y-53042619D01*
X76924819Y-52518809D02*
X76877200Y-52614047D01*
X76877200Y-52614047D02*
X76829580Y-52661666D01*
X76829580Y-52661666D02*
X76734342Y-52709285D01*
X76734342Y-52709285D02*
X76448628Y-52709285D01*
X76448628Y-52709285D02*
X76353390Y-52661666D01*
X76353390Y-52661666D02*
X76305771Y-52614047D01*
X76305771Y-52614047D02*
X76258152Y-52518809D01*
X76258152Y-52518809D02*
X76258152Y-52375952D01*
X76258152Y-52375952D02*
X76305771Y-52280714D01*
X76305771Y-52280714D02*
X76353390Y-52233095D01*
X76353390Y-52233095D02*
X76448628Y-52185476D01*
X76448628Y-52185476D02*
X76734342Y-52185476D01*
X76734342Y-52185476D02*
X76829580Y-52233095D01*
X76829580Y-52233095D02*
X76877200Y-52280714D01*
X76877200Y-52280714D02*
X76924819Y-52375952D01*
X76924819Y-52375952D02*
X76924819Y-52518809D01*
X76924819Y-51756904D02*
X75924819Y-51756904D01*
X75924819Y-51756904D02*
X76639104Y-51423571D01*
X76639104Y-51423571D02*
X75924819Y-51090238D01*
X75924819Y-51090238D02*
X76924819Y-51090238D01*
X76924819Y-50471190D02*
X76877200Y-50566428D01*
X76877200Y-50566428D02*
X76829580Y-50614047D01*
X76829580Y-50614047D02*
X76734342Y-50661666D01*
X76734342Y-50661666D02*
X76448628Y-50661666D01*
X76448628Y-50661666D02*
X76353390Y-50614047D01*
X76353390Y-50614047D02*
X76305771Y-50566428D01*
X76305771Y-50566428D02*
X76258152Y-50471190D01*
X76258152Y-50471190D02*
X76258152Y-50328333D01*
X76258152Y-50328333D02*
X76305771Y-50233095D01*
X76305771Y-50233095D02*
X76353390Y-50185476D01*
X76353390Y-50185476D02*
X76448628Y-50137857D01*
X76448628Y-50137857D02*
X76734342Y-50137857D01*
X76734342Y-50137857D02*
X76829580Y-50185476D01*
X76829580Y-50185476D02*
X76877200Y-50233095D01*
X76877200Y-50233095D02*
X76924819Y-50328333D01*
X76924819Y-50328333D02*
X76924819Y-50471190D01*
X76258152Y-49852142D02*
X76258152Y-49471190D01*
X75924819Y-49709285D02*
X76781961Y-49709285D01*
X76781961Y-49709285D02*
X76877200Y-49661666D01*
X76877200Y-49661666D02*
X76924819Y-49566428D01*
X76924819Y-49566428D02*
X76924819Y-49471190D01*
X76924819Y-48994999D02*
X76877200Y-49090237D01*
X76877200Y-49090237D02*
X76829580Y-49137856D01*
X76829580Y-49137856D02*
X76734342Y-49185475D01*
X76734342Y-49185475D02*
X76448628Y-49185475D01*
X76448628Y-49185475D02*
X76353390Y-49137856D01*
X76353390Y-49137856D02*
X76305771Y-49090237D01*
X76305771Y-49090237D02*
X76258152Y-48994999D01*
X76258152Y-48994999D02*
X76258152Y-48852142D01*
X76258152Y-48852142D02*
X76305771Y-48756904D01*
X76305771Y-48756904D02*
X76353390Y-48709285D01*
X76353390Y-48709285D02*
X76448628Y-48661666D01*
X76448628Y-48661666D02*
X76734342Y-48661666D01*
X76734342Y-48661666D02*
X76829580Y-48709285D01*
X76829580Y-48709285D02*
X76877200Y-48756904D01*
X76877200Y-48756904D02*
X76924819Y-48852142D01*
X76924819Y-48852142D02*
X76924819Y-48994999D01*
X76924819Y-48233094D02*
X76258152Y-48233094D01*
X76448628Y-48233094D02*
X76353390Y-48185475D01*
X76353390Y-48185475D02*
X76305771Y-48137856D01*
X76305771Y-48137856D02*
X76258152Y-48042618D01*
X76258152Y-48042618D02*
X76258152Y-47947380D01*
X76924819Y-47090237D02*
X76924819Y-47661665D01*
X76924819Y-47375951D02*
X75924819Y-47375951D01*
X75924819Y-47375951D02*
X76067676Y-47471189D01*
X76067676Y-47471189D02*
X76162914Y-47566427D01*
X76162914Y-47566427D02*
X76210533Y-47661665D01*
X93813333Y-61414819D02*
X93480000Y-60938628D01*
X93241905Y-61414819D02*
X93241905Y-60414819D01*
X93241905Y-60414819D02*
X93622857Y-60414819D01*
X93622857Y-60414819D02*
X93718095Y-60462438D01*
X93718095Y-60462438D02*
X93765714Y-60510057D01*
X93765714Y-60510057D02*
X93813333Y-60605295D01*
X93813333Y-60605295D02*
X93813333Y-60748152D01*
X93813333Y-60748152D02*
X93765714Y-60843390D01*
X93765714Y-60843390D02*
X93718095Y-60891009D01*
X93718095Y-60891009D02*
X93622857Y-60938628D01*
X93622857Y-60938628D02*
X93241905Y-60938628D01*
X94670476Y-60748152D02*
X94670476Y-61414819D01*
X94432381Y-60367200D02*
X94194286Y-61081485D01*
X94194286Y-61081485D02*
X94813333Y-61081485D01*
X88566666Y-44944819D02*
X88566666Y-45659104D01*
X88566666Y-45659104D02*
X88519047Y-45801961D01*
X88519047Y-45801961D02*
X88423809Y-45897200D01*
X88423809Y-45897200D02*
X88280952Y-45944819D01*
X88280952Y-45944819D02*
X88185714Y-45944819D01*
X89471428Y-44944819D02*
X89280952Y-44944819D01*
X89280952Y-44944819D02*
X89185714Y-44992438D01*
X89185714Y-44992438D02*
X89138095Y-45040057D01*
X89138095Y-45040057D02*
X89042857Y-45182914D01*
X89042857Y-45182914D02*
X88995238Y-45373390D01*
X88995238Y-45373390D02*
X88995238Y-45754342D01*
X88995238Y-45754342D02*
X89042857Y-45849580D01*
X89042857Y-45849580D02*
X89090476Y-45897200D01*
X89090476Y-45897200D02*
X89185714Y-45944819D01*
X89185714Y-45944819D02*
X89376190Y-45944819D01*
X89376190Y-45944819D02*
X89471428Y-45897200D01*
X89471428Y-45897200D02*
X89519047Y-45849580D01*
X89519047Y-45849580D02*
X89566666Y-45754342D01*
X89566666Y-45754342D02*
X89566666Y-45516247D01*
X89566666Y-45516247D02*
X89519047Y-45421009D01*
X89519047Y-45421009D02*
X89471428Y-45373390D01*
X89471428Y-45373390D02*
X89376190Y-45325771D01*
X89376190Y-45325771D02*
X89185714Y-45325771D01*
X89185714Y-45325771D02*
X89090476Y-45373390D01*
X89090476Y-45373390D02*
X89042857Y-45421009D01*
X89042857Y-45421009D02*
X88995238Y-45516247D01*
X103324819Y-83458333D02*
X104039104Y-83458333D01*
X104039104Y-83458333D02*
X104181961Y-83505952D01*
X104181961Y-83505952D02*
X104277200Y-83601190D01*
X104277200Y-83601190D02*
X104324819Y-83744047D01*
X104324819Y-83744047D02*
X104324819Y-83839285D01*
X103324819Y-83077380D02*
X103324819Y-82458333D01*
X103324819Y-82458333D02*
X103705771Y-82791666D01*
X103705771Y-82791666D02*
X103705771Y-82648809D01*
X103705771Y-82648809D02*
X103753390Y-82553571D01*
X103753390Y-82553571D02*
X103801009Y-82505952D01*
X103801009Y-82505952D02*
X103896247Y-82458333D01*
X103896247Y-82458333D02*
X104134342Y-82458333D01*
X104134342Y-82458333D02*
X104229580Y-82505952D01*
X104229580Y-82505952D02*
X104277200Y-82553571D01*
X104277200Y-82553571D02*
X104324819Y-82648809D01*
X104324819Y-82648809D02*
X104324819Y-82934523D01*
X104324819Y-82934523D02*
X104277200Y-83029761D01*
X104277200Y-83029761D02*
X104229580Y-83077380D01*
X80464819Y-83458333D02*
X81179104Y-83458333D01*
X81179104Y-83458333D02*
X81321961Y-83505952D01*
X81321961Y-83505952D02*
X81417200Y-83601190D01*
X81417200Y-83601190D02*
X81464819Y-83744047D01*
X81464819Y-83744047D02*
X81464819Y-83839285D01*
X80798152Y-82553571D02*
X81464819Y-82553571D01*
X80417200Y-82791666D02*
X81131485Y-83029761D01*
X81131485Y-83029761D02*
X81131485Y-82410714D01*
%TO.C,J5*%
D11*
X63930000Y-82890000D02*
X63070000Y-82890000D01*
X63070000Y-88890000D01*
X63930000Y-88890000D01*
X63930000Y-82890000D01*
G36*
X63930000Y-82890000D02*
G01*
X63070000Y-82890000D01*
X63070000Y-88890000D01*
X63930000Y-88890000D01*
X63930000Y-82890000D01*
G37*
X64880000Y-80130000D02*
X59580000Y-80130000D01*
X59580000Y-82890000D01*
X64880000Y-82890000D01*
X64880000Y-80130000D01*
X60530000Y-88890000D02*
X60530000Y-82890000D01*
X61390000Y-88890000D02*
X60530000Y-88890000D01*
X61390000Y-82890000D02*
X61390000Y-88890000D01*
X62230000Y-80130000D02*
X62230000Y-82890000D01*
X63070000Y-79900000D02*
X63070000Y-80130000D01*
X63930000Y-79900000D02*
X63930000Y-80130000D01*
X60530000Y-79817358D02*
X60530000Y-80130000D01*
X61390000Y-79817358D02*
X61390000Y-80130000D01*
X63500000Y-77470000D02*
X64770000Y-77470000D01*
X64770000Y-77470000D02*
X64770000Y-78740000D01*
%TO.C,R12*%
X79907224Y-61482500D02*
X79397776Y-61482500D01*
X79907224Y-60437500D02*
X79397776Y-60437500D01*
%TO.C,R11*%
X79907224Y-66562500D02*
X79397776Y-66562500D01*
X79907224Y-65517500D02*
X79397776Y-65517500D01*
%TO.C,J2*%
X72450000Y-49530000D02*
X72450000Y-77530000D01*
X72450000Y-46930000D02*
X72450000Y-48260000D01*
X71120000Y-46930000D02*
X72450000Y-46930000D01*
X69790000Y-77530000D02*
X72450000Y-77530000D01*
X69790000Y-49530000D02*
X72450000Y-49530000D01*
X69790000Y-49530000D02*
X69790000Y-77530000D01*
%TO.C,R5*%
X96832776Y-66477500D02*
X97342224Y-66477500D01*
X96832776Y-67522500D02*
X97342224Y-67522500D01*
%TO.C,Rshunt1*%
X59330000Y-58157064D02*
X59330000Y-56702936D01*
X57510000Y-58157064D02*
X57510000Y-56702936D01*
%TO.C,RFB2*%
X48887776Y-67717500D02*
X49397224Y-67717500D01*
X48887776Y-66672500D02*
X49397224Y-66672500D01*
%TO.C,RFB1*%
X44887776Y-67717500D02*
X45397224Y-67717500D01*
X44887776Y-66672500D02*
X45397224Y-66672500D01*
%TO.C,R8*%
X53887776Y-66717500D02*
X54397224Y-66717500D01*
X53887776Y-65672500D02*
X54397224Y-65672500D01*
%TO.C,R9*%
X55222224Y-75672500D02*
X54712776Y-75672500D01*
X55222224Y-76717500D02*
X54712776Y-76717500D01*
%TO.C,R2*%
X97687224Y-74182500D02*
X97177776Y-74182500D01*
X97687224Y-73137500D02*
X97177776Y-73137500D01*
%TO.C,R1*%
X74182500Y-62332776D02*
X74182500Y-62842224D01*
X73137500Y-62332776D02*
X73137500Y-62842224D01*
%TO.C,L1*%
X39552500Y-60268752D02*
X39552500Y-59746248D01*
X37332500Y-60268752D02*
X37332500Y-59746248D01*
%TO.C,R3*%
X96832776Y-68977500D02*
X97342224Y-68977500D01*
X96832776Y-70022500D02*
X97342224Y-70022500D01*
%TO.C,Cin1*%
X38933733Y-63680000D02*
X39226267Y-63680000D01*
X38933733Y-62660000D02*
X39226267Y-62660000D01*
%TO.C,C4*%
X47065000Y-74411233D02*
X47065000Y-74703767D01*
X46045000Y-74411233D02*
X46045000Y-74703767D01*
%TO.C,Cout1*%
X49465000Y-60343752D02*
X49465000Y-58921248D01*
X47645000Y-60343752D02*
X47645000Y-58921248D01*
%TO.C,U3*%
X65860000Y-58120000D02*
X65380000Y-58120000D01*
X65620000Y-57790000D01*
X65860000Y-58120000D01*
G36*
X65860000Y-58120000D02*
G01*
X65380000Y-58120000D01*
X65620000Y-57790000D01*
X65860000Y-58120000D01*
G37*
X61810000Y-54770000D02*
X65030000Y-54770000D01*
X61810000Y-54970000D02*
X61810000Y-54770000D01*
X61810000Y-57990000D02*
X61810000Y-57790000D01*
X65030000Y-54770000D02*
X65030000Y-54970000D01*
X65030000Y-57790000D02*
X65030000Y-57990000D01*
X65030000Y-57990000D02*
X61810000Y-57990000D01*
%TO.C,U2*%
X50327500Y-74205000D02*
X48507500Y-74205000D01*
X50327500Y-74155000D02*
X50327500Y-74205000D01*
X50327500Y-71085000D02*
X50327500Y-71135000D01*
X48507500Y-74205000D02*
X48507500Y-74155000D01*
X48507500Y-71135000D02*
X48507500Y-71085000D01*
X48507500Y-71085000D02*
X50327500Y-71085000D01*
X51107500Y-74485000D02*
X50627500Y-74485000D01*
X50867500Y-74155000D01*
X51107500Y-74485000D01*
G36*
X51107500Y-74485000D02*
G01*
X50627500Y-74485000D01*
X50867500Y-74155000D01*
X51107500Y-74485000D01*
G37*
%TO.C,U1*%
X42332500Y-60060000D02*
X45552500Y-60060000D01*
X42332500Y-60235000D02*
X42332500Y-60060000D01*
X42332500Y-63280000D02*
X42332500Y-63105000D01*
X45552500Y-60060000D02*
X45552500Y-60235000D01*
X45552500Y-63105000D02*
X45552500Y-63280000D01*
X45552500Y-63280000D02*
X42332500Y-63280000D01*
X41782500Y-60230000D02*
X41542500Y-59900000D01*
X42022500Y-59900000D01*
X41782500Y-60230000D01*
G36*
X41782500Y-60230000D02*
G01*
X41542500Y-59900000D01*
X42022500Y-59900000D01*
X41782500Y-60230000D01*
G37*
%TO.C,Q2*%
X55495000Y-71455000D02*
X55495000Y-69935000D01*
X55545000Y-71455000D02*
X55495000Y-71455000D01*
X57445000Y-71455000D02*
X56665000Y-71455000D01*
X58615000Y-71455000D02*
X58565000Y-71455000D01*
X55495000Y-69935000D02*
X56495000Y-69935000D01*
X57615000Y-69935000D02*
X58615000Y-69935000D01*
X58615000Y-69935000D02*
X58615000Y-71455000D01*
X57005000Y-72235000D02*
X56675000Y-71995000D01*
X57005000Y-71755000D01*
X57005000Y-72235000D01*
G36*
X57005000Y-72235000D02*
G01*
X56675000Y-71995000D01*
X57005000Y-71755000D01*
X57005000Y-72235000D01*
G37*
%TO.C,ServoMotor1*%
X77470000Y-57150000D02*
X77470000Y-55880000D01*
X78740000Y-57150000D02*
X77470000Y-57150000D01*
X80850000Y-54802642D02*
X80850000Y-54490000D01*
X81710000Y-54802642D02*
X81710000Y-54490000D01*
X83390000Y-54802642D02*
X83390000Y-54490000D01*
X84250000Y-54802642D02*
X84250000Y-54490000D01*
X78310000Y-54720000D02*
X78310000Y-54490000D01*
X79170000Y-54720000D02*
X79170000Y-54490000D01*
X80010000Y-54490000D02*
X80010000Y-51730000D01*
X82550000Y-54490000D02*
X82550000Y-51730000D01*
X80850000Y-51730000D02*
X80850000Y-45730000D01*
X83390000Y-51730000D02*
X83390000Y-45730000D01*
X80850000Y-45730000D02*
X81710000Y-45730000D01*
X81710000Y-45730000D02*
X81710000Y-51730000D01*
X83390000Y-45730000D02*
X84250000Y-45730000D01*
X84250000Y-45730000D02*
X84250000Y-51730000D01*
X77360000Y-54490000D02*
X85200000Y-54490000D01*
X85200000Y-51730000D01*
X77360000Y-51730000D01*
X77360000Y-54490000D01*
X78310000Y-51730000D02*
X79170000Y-51730000D01*
X79170000Y-45730000D01*
X78310000Y-45730000D01*
X78310000Y-51730000D01*
G36*
X78310000Y-51730000D02*
G01*
X79170000Y-51730000D01*
X79170000Y-45730000D01*
X78310000Y-45730000D01*
X78310000Y-51730000D01*
G37*
%TO.C,R4*%
X95862224Y-62977500D02*
X95352776Y-62977500D01*
X95862224Y-64022500D02*
X95352776Y-64022500D01*
%TO.C,J6*%
X90230000Y-49530000D02*
X90230000Y-77530000D01*
X90230000Y-46930000D02*
X90230000Y-48260000D01*
X88900000Y-46930000D02*
X90230000Y-46930000D01*
X87570000Y-77530000D02*
X90230000Y-77530000D01*
X87570000Y-49530000D02*
X90230000Y-49530000D01*
X87570000Y-49530000D02*
X87570000Y-77530000D01*
%TO.C,J3*%
X102030000Y-82890000D02*
X101170000Y-82890000D01*
X101170000Y-88890000D01*
X102030000Y-88890000D01*
X102030000Y-82890000D01*
G36*
X102030000Y-82890000D02*
G01*
X101170000Y-82890000D01*
X101170000Y-88890000D01*
X102030000Y-88890000D01*
X102030000Y-82890000D01*
G37*
X102980000Y-80130000D02*
X92600000Y-80130000D01*
X92600000Y-82890000D01*
X102980000Y-82890000D01*
X102980000Y-80130000D01*
X93550000Y-88890000D02*
X93550000Y-82890000D01*
X94410000Y-88890000D02*
X93550000Y-88890000D01*
X96090000Y-88890000D02*
X96090000Y-82890000D01*
X96950000Y-88890000D02*
X96090000Y-88890000D01*
X98630000Y-88890000D02*
X98630000Y-82890000D01*
X99490000Y-88890000D02*
X98630000Y-88890000D01*
X94410000Y-82890000D02*
X94410000Y-88890000D01*
X96950000Y-82890000D02*
X96950000Y-88890000D01*
X99490000Y-82890000D02*
X99490000Y-88890000D01*
X95250000Y-80130000D02*
X95250000Y-82890000D01*
X97790000Y-80130000D02*
X97790000Y-82890000D01*
X100330000Y-80130000D02*
X100330000Y-82890000D01*
X101170000Y-79900000D02*
X101170000Y-80130000D01*
X102030000Y-79900000D02*
X102030000Y-80130000D01*
X93550000Y-79817358D02*
X93550000Y-80130000D01*
X94410000Y-79817358D02*
X94410000Y-80130000D01*
X96090000Y-79817358D02*
X96090000Y-80130000D01*
X96950000Y-79817358D02*
X96950000Y-80130000D01*
X98630000Y-79817358D02*
X98630000Y-80130000D01*
X99490000Y-79817358D02*
X99490000Y-80130000D01*
X101600000Y-77470000D02*
X102870000Y-77470000D01*
X102870000Y-77470000D02*
X102870000Y-78740000D01*
%TO.C,J4*%
X80010000Y-77470000D02*
X80010000Y-78740000D01*
X78740000Y-77470000D02*
X80010000Y-77470000D01*
X76630000Y-79817358D02*
X76630000Y-80130000D01*
X75770000Y-79817358D02*
X75770000Y-80130000D01*
X79170000Y-79900000D02*
X79170000Y-80130000D01*
X78310000Y-79900000D02*
X78310000Y-80130000D01*
X77470000Y-80130000D02*
X77470000Y-82890000D01*
X76630000Y-82890000D02*
X76630000Y-88890000D01*
X76630000Y-88890000D02*
X75770000Y-88890000D01*
X75770000Y-88890000D02*
X75770000Y-82890000D01*
X80120000Y-80130000D02*
X74820000Y-80130000D01*
X74820000Y-82890000D01*
X80120000Y-82890000D01*
X80120000Y-80130000D01*
X79170000Y-82890000D02*
X78310000Y-82890000D01*
X78310000Y-88890000D01*
X79170000Y-88890000D01*
X79170000Y-82890000D01*
G36*
X79170000Y-82890000D02*
G01*
X78310000Y-82890000D01*
X78310000Y-88890000D01*
X79170000Y-88890000D01*
X79170000Y-82890000D01*
G37*
%TD*%
M02*
